<svg xmlns="http://www.w3.org/2000/svg" xmlns:xlink="http://www.w3.org/1999/xlink" width="300" zoomAndPan="magnify" viewBox="0 0 224.87999 225" height="300" preserveAspectRatio="xMidYMid meet" version="1.0"><defs><clipPath id="eb4b77de8e"><path d="M 15 71 L 135 71 L 135 211.675781 L 15 211.675781 Z M 15 71 " clip-rule="nonzero"/></clipPath><clipPath id="2c83862c65"><path d="M 121 42 L 210.570312 42 L 210.570312 182 L 121 182 Z M 121 42 " clip-rule="nonzero"/></clipPath><clipPath id="e63dc2b427"><path d="M 167 10.78125 L 175 10.78125 L 175 18 L 167 18 Z M 167 10.78125 " clip-rule="nonzero"/></clipPath></defs><g clip-path="url(#eb4b77de8e)"><path fill="#ffffff" d="M 133.054688 188.957031 L 92.867188 124.148438 L 92.867188 87.324219 C 97.308594 87.324219 100.882812 83.71875 100.882812 79.285156 C 100.882812 74.847656 97.308594 71.246094 92.867188 71.246094 L 56.703125 71.246094 C 52.265625 71.246094 48.660156 74.847656 48.660156 79.285156 C 48.660156 83.71875 52.265625 87.324219 56.703125 87.324219 L 57.359375 87.324219 L 57.359375 124.148438 L 17.171875 188.957031 C 11.925781 198.78125 18.453125 211.046875 29.59375 211.644531 C 29.949219 211.671875 30.308594 211.671875 30.664062 211.671875 L 119.5625 211.671875 C 119.917969 211.671875 120.277344 211.671875 120.632812 211.644531 C 131.746094 211.046875 138.269531 198.78125 133.054688 188.957031 Z M 133.054688 188.957031 " fill-opacity="1" fill-rule="nonzero"/></g><path fill="#00a99d" d="M 117.625 184.640625 L 103.652344 164.011719 C 100.109375 166.839844 96.742188 168.683594 89.828125 170.054688 C 77.230469 172.523438 71.628906 165.914062 62.898438 158.207031 C 58.699219 154.484375 54.824219 153.917969 50.089844 154.78125 L 32.574219 184.671875 C 28.730469 191.875 33.527344 200.867188 41.6875 201.3125 C 41.957031 201.3125 42.222656 201.34375 42.492188 201.34375 L 107.703125 201.34375 C 107.972656 201.34375 108.242188 201.34375 108.507812 201.3125 C 116.671875 200.867188 121.46875 191.847656 117.625 184.640625 Z M 117.625 184.640625 " fill-opacity="1" fill-rule="nonzero"/><path fill="#00a99d" d="M 94.773438 151.210938 C 94.773438 151.488281 94.75 151.761719 94.695312 152.035156 C 94.640625 152.304688 94.558594 152.570312 94.453125 152.828125 C 94.347656 153.082031 94.214844 153.328125 94.0625 153.558594 C 93.90625 153.789062 93.734375 154.003906 93.535156 154.199219 C 93.339844 154.394531 93.125 154.570312 92.894531 154.722656 C 92.664062 154.878906 92.421875 155.007812 92.164062 155.113281 C 91.90625 155.222656 91.644531 155.300781 91.371094 155.355469 C 91.097656 155.410156 90.824219 155.4375 90.546875 155.4375 C 90.265625 155.4375 89.992188 155.410156 89.71875 155.355469 C 89.445312 155.300781 89.183594 155.222656 88.925781 155.113281 C 88.667969 155.007812 88.425781 154.878906 88.195312 154.722656 C 87.964844 154.570312 87.75 154.394531 87.554688 154.199219 C 87.355469 154.003906 87.183594 153.789062 87.027344 153.558594 C 86.875 153.328125 86.742188 153.082031 86.636719 152.828125 C 86.53125 152.570312 86.449219 152.304688 86.394531 152.035156 C 86.339844 151.761719 86.316406 151.488281 86.316406 151.210938 C 86.316406 150.933594 86.339844 150.65625 86.394531 150.386719 C 86.449219 150.113281 86.53125 149.847656 86.636719 149.59375 C 86.742188 149.335938 86.875 149.089844 87.027344 148.859375 C 87.183594 148.628906 87.355469 148.417969 87.554688 148.21875 C 87.75 148.023438 87.964844 147.847656 88.195312 147.695312 C 88.425781 147.539062 88.667969 147.410156 88.925781 147.304688 C 89.183594 147.199219 89.445312 147.117188 89.71875 147.0625 C 89.992188 147.007812 90.265625 146.980469 90.546875 146.980469 C 90.824219 146.980469 91.097656 147.007812 91.371094 147.0625 C 91.644531 147.117188 91.90625 147.199219 92.164062 147.304688 C 92.421875 147.410156 92.664062 147.539062 92.894531 147.695312 C 93.125 147.847656 93.339844 148.023438 93.535156 148.21875 C 93.734375 148.417969 93.90625 148.628906 94.0625 148.859375 C 94.214844 149.089844 94.347656 149.335938 94.453125 149.59375 C 94.558594 149.847656 94.640625 150.113281 94.695312 150.386719 C 94.75 150.65625 94.773438 150.933594 94.773438 151.210938 Z M 94.773438 151.210938 " fill-opacity="1" fill-rule="nonzero"/><path fill="#00a99d" d="M 90.792969 135.410156 C 91.0625 135.679688 91.269531 135.992188 91.417969 136.347656 C 91.566406 136.699219 91.636719 137.070312 91.636719 137.453125 C 91.636719 137.835938 91.566406 138.203125 91.417969 138.558594 C 91.269531 138.910156 91.0625 139.222656 90.792969 139.492188 C 90.519531 139.765625 90.207031 139.972656 89.855469 140.121094 C 89.5 140.265625 89.132812 140.339844 88.75 140.339844 C 88.363281 140.339844 87.996094 140.265625 87.640625 140.121094 C 87.289062 139.972656 86.976562 139.765625 86.703125 139.496094 C 86.433594 139.222656 86.226562 138.910156 86.078125 138.558594 C 85.933594 138.203125 85.859375 137.835938 85.859375 137.453125 C 85.859375 137.070312 85.933594 136.699219 86.078125 136.347656 C 86.226562 135.992188 86.433594 135.679688 86.703125 135.410156 C 86.976562 135.140625 87.289062 134.929688 87.640625 134.785156 C 87.996094 134.636719 88.363281 134.566406 88.75 134.566406 C 89.132812 134.566406 89.5 134.636719 89.855469 134.785156 C 90.207031 134.929688 90.519531 135.140625 90.792969 135.410156 Z M 90.792969 135.410156 " fill-opacity="1" fill-rule="nonzero"/><path fill="#00a99d" d="M 83.007812 145.375 C 83.007812 145.851562 82.917969 146.3125 82.734375 146.753906 C 82.550781 147.195312 82.289062 147.585938 81.953125 147.921875 C 81.613281 148.257812 81.222656 148.519531 80.78125 148.703125 C 80.339844 148.886719 79.882812 148.976562 79.402344 148.976562 C 78.925781 148.976562 78.464844 148.886719 78.023438 148.703125 C 77.582031 148.519531 77.191406 148.257812 76.855469 147.921875 C 76.515625 147.585938 76.257812 147.195312 76.074219 146.753906 C 75.890625 146.3125 75.796875 145.851562 75.796875 145.375 C 75.796875 144.898438 75.890625 144.4375 76.074219 143.996094 C 76.257812 143.554688 76.515625 143.164062 76.855469 142.828125 C 77.191406 142.488281 77.582031 142.230469 78.023438 142.046875 C 78.464844 141.863281 78.925781 141.773438 79.402344 141.773438 C 79.882812 141.773438 80.339844 141.863281 80.78125 142.046875 C 81.222656 142.230469 81.613281 142.488281 81.953125 142.828125 C 82.289062 143.164062 82.550781 143.554688 82.734375 143.996094 C 82.917969 144.4375 83.007812 144.898438 83.007812 145.375 Z M 83.007812 145.375 " fill-opacity="1" fill-rule="nonzero"/><path stroke-linecap="butt" transform="matrix(0.297906, 0, 0, 0.297701, -30.047574, -31.668303)" fill="none" stroke-linejoin="miter" d="M 309.79448 437.494049 L 354.205973 437.494049 " stroke="#bdccd4" stroke-width="9.166" stroke-opacity="1" stroke-miterlimit="10"/><path stroke-linecap="butt" transform="matrix(0.297906, 0, 0, 0.297701, -30.047574, -31.668303)" fill="none" stroke-linejoin="miter" d="M 309.79448 464.694662 L 354.205973 464.694662 " stroke="#bdccd4" stroke-width="9.166" stroke-opacity="1" stroke-miterlimit="10"/><path stroke-linecap="butt" transform="matrix(0.297906, 0, 0, 0.297701, -30.047574, -31.668303)" fill="none" stroke-linejoin="miter" d="M 309.79448 491.895274 L 354.205973 491.895274 " stroke="#bdccd4" stroke-width="9.166" stroke-opacity="1" stroke-miterlimit="10"/><path stroke-linecap="butt" transform="matrix(0.297906, 0, 0, 0.297701, -30.047574, -31.668303)" fill="none" stroke-linejoin="miter" d="M 309.79448 519.095887 L 354.205973 519.095887 " stroke="#bdccd4" stroke-width="9.166" stroke-opacity="1" stroke-miterlimit="10"/><path fill="#ffffff" d="M 86.285156 186.277344 C 86.285156 186.714844 86.203125 187.128906 86.035156 187.53125 C 85.867188 187.933594 85.632812 188.289062 85.324219 188.59375 C 85.019531 188.902344 84.664062 189.136719 84.261719 189.304688 C 83.859375 189.46875 83.441406 189.554688 83.007812 189.554688 C 82.574219 189.554688 82.15625 189.46875 81.753906 189.304688 C 81.351562 189.136719 80.996094 188.902344 80.691406 188.59375 C 80.382812 188.289062 80.148438 187.933594 79.980469 187.53125 C 79.8125 187.128906 79.730469 186.714844 79.730469 186.277344 C 79.730469 185.84375 79.8125 185.425781 79.980469 185.027344 C 80.148438 184.625 80.382812 184.269531 80.691406 183.964844 C 80.996094 183.65625 81.351562 183.417969 81.753906 183.253906 C 82.15625 183.085938 82.574219 183.003906 83.007812 183.003906 C 83.441406 183.003906 83.859375 183.085938 84.261719 183.253906 C 84.664062 183.417969 85.019531 183.65625 85.324219 183.964844 C 85.632812 184.269531 85.867188 184.625 86.035156 185.027344 C 86.203125 185.425781 86.285156 185.84375 86.285156 186.277344 Z M 86.285156 186.277344 " fill-opacity="1" fill-rule="nonzero"/><path fill="#ffffff" d="M 98.273438 176.371094 C 98.5625 176.429688 98.84375 176.515625 99.117188 176.628906 C 99.386719 176.742188 99.648438 176.882812 99.890625 177.046875 C 100.136719 177.214844 100.363281 177.402344 100.570312 177.609375 C 100.777344 177.820312 100.964844 178.046875 101.128906 178.292969 C 101.289062 178.539062 101.429688 178.800781 101.539062 179.074219 C 101.652344 179.34375 101.734375 179.628906 101.792969 179.917969 C 101.847656 180.207031 101.875 180.5 101.875 180.792969 C 101.875 181.089844 101.84375 181.382812 101.785156 181.671875 C 101.726562 181.960938 101.640625 182.242188 101.527344 182.511719 C 101.410156 182.785156 101.273438 183.042969 101.105469 183.289062 C 100.941406 183.53125 100.753906 183.757812 100.542969 183.96875 C 100.335938 184.175781 100.105469 184.359375 99.859375 184.523438 C 99.613281 184.6875 99.355469 184.824219 99.082031 184.9375 C 98.808594 185.046875 98.527344 185.132812 98.234375 185.1875 C 97.945312 185.246094 97.652344 185.273438 97.359375 185.269531 C 97.0625 185.269531 96.769531 185.238281 96.480469 185.179688 C 96.191406 185.121094 95.910156 185.035156 95.636719 184.921875 C 95.367188 184.808594 95.105469 184.667969 94.863281 184.503906 C 94.617188 184.335938 94.390625 184.148438 94.183594 183.941406 C 93.976562 183.730469 93.789062 183.503906 93.625 183.257812 C 93.464844 183.011719 93.324219 182.75 93.214844 182.476562 C 93.101562 182.203125 93.019531 181.921875 92.960938 181.632812 C 92.90625 181.34375 92.878906 181.050781 92.878906 180.757812 C 92.878906 180.460938 92.910156 180.167969 92.96875 179.878906 C 93.027344 179.589844 93.113281 179.308594 93.226562 179.039062 C 93.34375 178.765625 93.480469 178.507812 93.648438 178.261719 C 93.8125 178.015625 94 177.792969 94.210938 177.582031 C 94.417969 177.375 94.648438 177.191406 94.894531 177.027344 C 95.140625 176.863281 95.398438 176.726562 95.671875 176.613281 C 95.945312 176.503906 96.226562 176.417969 96.519531 176.363281 C 96.808594 176.304688 97.101562 176.277344 97.394531 176.28125 C 97.691406 176.28125 97.984375 176.3125 98.273438 176.371094 Z M 98.273438 176.371094 " fill-opacity="1" fill-rule="nonzero"/><path fill="#ffffff" d="M 105.082031 190.386719 C 105.082031 190.761719 105.011719 191.121094 104.867188 191.46875 C 104.722656 191.816406 104.519531 192.121094 104.253906 192.386719 C 103.988281 192.652344 103.683594 192.855469 103.335938 193 C 102.988281 193.144531 102.628906 193.214844 102.253906 193.214844 C 101.878906 193.214844 101.515625 193.144531 101.167969 193 C 100.824219 192.855469 100.515625 192.652344 100.25 192.386719 C 99.984375 192.121094 99.78125 191.816406 99.636719 191.46875 C 99.496094 191.121094 99.421875 190.761719 99.421875 190.386719 C 99.421875 190.011719 99.496094 189.652344 99.636719 189.304688 C 99.78125 188.957031 99.984375 188.652344 100.25 188.386719 C 100.515625 188.121094 100.824219 187.917969 101.167969 187.773438 C 101.515625 187.628906 101.878906 187.558594 102.253906 187.558594 C 102.628906 187.558594 102.988281 187.628906 103.335938 187.773438 C 103.683594 187.917969 103.988281 188.121094 104.253906 188.386719 C 104.519531 188.652344 104.722656 188.957031 104.867188 189.304688 C 105.011719 189.652344 105.082031 190.011719 105.082031 190.386719 Z M 105.082031 190.386719 " fill-opacity="1" fill-rule="nonzero"/><path fill="#e6e6e6" d="M 57.359375 87.324219 L 92.867188 87.324219 L 92.867188 93.007812 L 57.359375 93.007812 Z M 57.359375 87.324219 " fill-opacity="1" fill-rule="nonzero"/><g clip-path="url(#2c83862c65)"><path fill="#ffffff" d="M 183.910156 95.808594 L 183.910156 58.625 C 188.347656 58.625 191.921875 55.023438 191.921875 50.585938 C 191.921875 46.152344 188.347656 42.546875 183.910156 42.546875 L 147.742188 42.546875 C 143.304688 42.546875 139.699219 46.152344 139.699219 50.585938 C 139.699219 55.023438 143.304688 58.625 147.742188 58.625 L 148.398438 58.625 L 148.398438 95.507812 C 132.339844 102.296875 121.082031 118.195312 121.082031 136.710938 C 121.082031 161.421875 141.101562 181.425781 165.824219 181.425781 C 190.550781 181.425781 210.570312 161.421875 210.570312 136.710938 C 210.570312 118.460938 199.609375 102.773438 183.910156 95.808594 Z M 183.910156 95.808594 " fill-opacity="1" fill-rule="nonzero"/></g><path stroke-linecap="butt" transform="matrix(0.297906, 0, 0, 0.297701, -30.047574, -31.668303)" fill="none" stroke-linejoin="miter" d="M 614.19744 340.094073 L 658.70072 340.094073 " stroke="#bdccd4" stroke-width="9.166" stroke-opacity="1" stroke-miterlimit="10"/><path stroke-linecap="butt" transform="matrix(0.297906, 0, 0, 0.297701, -30.047574, -31.668303)" fill="none" stroke-linejoin="miter" d="M 614.19744 367.294686 L 658.70072 367.294686 " stroke="#bdccd4" stroke-width="9.166" stroke-opacity="1" stroke-miterlimit="10"/><path stroke-linecap="butt" transform="matrix(0.297906, 0, 0, 0.297701, -30.047574, -31.668303)" fill="none" stroke-linejoin="miter" d="M 614.19744 394.495299 L 658.70072 394.495299 " stroke="#bdccd4" stroke-width="9.166" stroke-opacity="1" stroke-miterlimit="10"/><path stroke-linecap="butt" transform="matrix(0.297906, 0, 0, 0.297701, -30.047574, -31.668303)" fill="none" stroke-linejoin="miter" d="M 614.19744 421.695912 L 658.70072 421.695912 " stroke="#bdccd4" stroke-width="9.166" stroke-opacity="1" stroke-miterlimit="10"/><path fill="#e6e6e6" d="M 148.070312 58.328125 L 183.582031 58.328125 L 183.582031 64.011719 L 148.070312 64.011719 Z M 148.070312 58.328125 " fill-opacity="1" fill-rule="nonzero"/><path fill="#0071bc" d="M 193.472656 118.523438 C 189.421875 121.945312 180.960938 128.226562 173.242188 128.464844 C 162.667969 128.792969 160.792969 121.351562 150.214844 121.527344 C 144.019531 121.617188 137.851562 125.191406 133.800781 128.136719 C 133.054688 130.875 132.667969 133.734375 132.667969 136.710938 C 132.667969 154.992188 147.503906 169.816406 165.796875 169.816406 C 184.085938 169.816406 198.921875 154.992188 198.921875 136.710938 C 198.921875 129.984375 196.925781 123.730469 193.472656 118.523438 Z M 193.472656 118.523438 " fill-opacity="1" fill-rule="nonzero"/><path fill="#0071bc" d="M 159.570312 114.414062 C 159.570312 114.675781 159.519531 114.925781 159.421875 115.164062 C 159.320312 115.40625 159.179688 115.617188 158.992188 115.804688 C 158.808594 115.988281 158.597656 116.128906 158.355469 116.230469 C 158.113281 116.328125 157.863281 116.378906 157.605469 116.378906 C 157.34375 116.378906 157.09375 116.328125 156.851562 116.230469 C 156.609375 116.128906 156.398438 115.988281 156.214844 115.804688 C 156.027344 115.617188 155.886719 115.40625 155.789062 115.164062 C 155.6875 114.925781 155.636719 114.675781 155.636719 114.414062 C 155.636719 114.152344 155.6875 113.902344 155.789062 113.660156 C 155.886719 113.421875 156.027344 113.207031 156.214844 113.023438 C 156.398438 112.839844 156.609375 112.699219 156.851562 112.597656 C 157.09375 112.5 157.34375 112.449219 157.605469 112.449219 C 157.863281 112.449219 158.113281 112.5 158.355469 112.597656 C 158.597656 112.699219 158.808594 112.839844 158.992188 113.023438 C 159.179688 113.207031 159.320312 113.421875 159.421875 113.660156 C 159.519531 113.902344 159.570312 114.152344 159.570312 114.414062 Z M 159.570312 114.414062 " fill-opacity="1" fill-rule="nonzero"/><path fill="#0071bc" d="M 174.464844 102.117188 C 174.464844 102.390625 174.4375 102.660156 174.386719 102.925781 C 174.332031 103.191406 174.253906 103.449219 174.148438 103.703125 C 174.046875 103.953125 173.917969 104.191406 173.765625 104.417969 C 173.617188 104.644531 173.445312 104.851562 173.253906 105.042969 C 173.058594 105.238281 172.851562 105.410156 172.625 105.558594 C 172.398438 105.710938 172.160156 105.835938 171.910156 105.941406 C 171.65625 106.046875 171.398438 106.125 171.132812 106.175781 C 170.867188 106.230469 170.597656 106.257812 170.324219 106.257812 C 170.050781 106.257812 169.78125 106.230469 169.515625 106.175781 C 169.25 106.125 168.992188 106.046875 168.738281 105.941406 C 168.488281 105.835938 168.25 105.710938 168.023438 105.558594 C 167.796875 105.410156 167.589844 105.238281 167.394531 105.042969 C 167.203125 104.851562 167.03125 104.644531 166.882812 104.417969 C 166.730469 104.191406 166.601562 103.953125 166.5 103.703125 C 166.394531 103.449219 166.316406 103.191406 166.261719 102.925781 C 166.210938 102.660156 166.183594 102.390625 166.183594 102.117188 C 166.183594 101.847656 166.210938 101.578125 166.261719 101.3125 C 166.316406 101.042969 166.394531 100.785156 166.5 100.535156 C 166.601562 100.285156 166.730469 100.046875 166.882812 99.820312 C 167.03125 99.59375 167.203125 99.382812 167.394531 99.191406 C 167.589844 99 167.796875 98.828125 168.023438 98.679688 C 168.25 98.527344 168.488281 98.398438 168.738281 98.296875 C 168.992188 98.191406 169.25 98.113281 169.515625 98.058594 C 169.78125 98.007812 170.050781 97.980469 170.324219 97.980469 C 170.597656 97.980469 170.867188 98.007812 171.132812 98.058594 C 171.398438 98.113281 171.65625 98.191406 171.910156 98.296875 C 172.160156 98.398438 172.398438 98.527344 172.625 98.679688 C 172.851562 98.828125 173.058594 99 173.253906 99.191406 C 173.445312 99.382812 173.617188 99.59375 173.765625 99.820312 C 173.917969 100.046875 174.046875 100.285156 174.148438 100.535156 C 174.253906 100.785156 174.332031 101.042969 174.386719 101.3125 C 174.4375 101.578125 174.464844 101.847656 174.464844 102.117188 Z M 174.464844 102.117188 " fill-opacity="1" fill-rule="nonzero"/><path fill="#0071bc" d="M 174.433594 115.1875 C 174.433594 115.628906 174.351562 116.054688 174.179688 116.464844 C 174.011719 116.871094 173.769531 117.234375 173.457031 117.546875 C 173.144531 117.859375 172.785156 118.097656 172.375 118.269531 C 171.96875 118.4375 171.542969 118.523438 171.097656 118.523438 C 170.65625 118.523438 170.230469 118.4375 169.820312 118.269531 C 169.414062 118.097656 169.050781 117.859375 168.738281 117.546875 C 168.425781 117.234375 168.1875 116.871094 168.015625 116.464844 C 167.847656 116.054688 167.761719 115.628906 167.761719 115.1875 C 167.761719 114.746094 167.847656 114.320312 168.015625 113.910156 C 168.1875 113.503906 168.425781 113.144531 168.738281 112.828125 C 169.050781 112.515625 169.414062 112.277344 169.820312 112.105469 C 170.230469 111.9375 170.65625 111.851562 171.097656 111.851562 C 171.542969 111.851562 171.96875 111.9375 172.375 112.105469 C 172.785156 112.277344 173.144531 112.515625 173.457031 112.828125 C 173.769531 113.144531 174.011719 113.503906 174.179688 113.910156 C 174.351562 114.320312 174.433594 114.746094 174.433594 115.1875 Z M 174.433594 115.1875 " fill-opacity="1" fill-rule="nonzero"/><path fill="#ffffff" d="M 167.734375 137.070312 C 167.734375 137.527344 167.644531 137.96875 167.46875 138.390625 C 167.292969 138.8125 167.042969 139.1875 166.71875 139.511719 C 166.394531 139.835938 166.023438 140.082031 165.597656 140.257812 C 165.175781 140.433594 164.734375 140.523438 164.277344 140.523438 C 163.820312 140.523438 163.378906 140.433594 162.953125 140.257812 C 162.53125 140.082031 162.15625 139.835938 161.832031 139.511719 C 161.507812 139.1875 161.257812 138.8125 161.085938 138.390625 C 160.910156 137.96875 160.820312 137.527344 160.820312 137.070312 C 160.820312 136.609375 160.910156 136.171875 161.085938 135.746094 C 161.257812 135.324219 161.507812 134.949219 161.832031 134.625 C 162.15625 134.304688 162.53125 134.054688 162.953125 133.878906 C 163.378906 133.703125 163.820312 133.617188 164.277344 133.617188 C 164.734375 133.617188 165.175781 133.703125 165.597656 133.878906 C 166.023438 134.054688 166.394531 134.304688 166.71875 134.625 C 167.042969 134.949219 167.292969 135.324219 167.46875 135.746094 C 167.644531 136.171875 167.734375 136.609375 167.734375 137.070312 Z M 167.734375 137.070312 " fill-opacity="1" fill-rule="nonzero"/><path fill="#ffffff" d="M 181.136719 127.15625 C 181.136719 127.535156 181.066406 127.898438 180.921875 128.25 C 180.777344 128.597656 180.570312 128.90625 180.300781 129.175781 C 180.03125 129.445312 179.722656 129.652344 179.371094 129.796875 C 179.023438 129.941406 178.65625 130.011719 178.277344 130.011719 C 177.898438 130.011719 177.535156 129.941406 177.183594 129.796875 C 176.832031 129.652344 176.523438 129.445312 176.257812 129.175781 C 175.988281 128.90625 175.78125 128.597656 175.636719 128.25 C 175.492188 127.898438 175.417969 127.535156 175.417969 127.15625 C 175.417969 126.777344 175.492188 126.410156 175.636719 126.0625 C 175.78125 125.710938 175.988281 125.402344 176.257812 125.132812 C 176.523438 124.867188 176.832031 124.660156 177.183594 124.515625 C 177.535156 124.371094 177.898438 124.296875 178.277344 124.296875 C 178.65625 124.296875 179.023438 124.371094 179.371094 124.515625 C 179.722656 124.660156 180.03125 124.867188 180.300781 125.132812 C 180.570312 125.402344 180.777344 125.710938 180.921875 126.0625 C 181.066406 126.410156 181.136719 126.777344 181.136719 127.15625 Z M 181.136719 127.15625 " fill-opacity="1" fill-rule="nonzero"/><path fill="#ffffff" d="M 186.382812 138.230469 C 186.382812 138.496094 186.355469 138.757812 186.304688 139.019531 C 186.25 139.28125 186.175781 139.535156 186.074219 139.777344 C 185.972656 140.023438 185.847656 140.257812 185.699219 140.480469 C 185.550781 140.699219 185.382812 140.90625 185.195312 141.09375 C 185.007812 141.28125 184.800781 141.449219 184.582031 141.597656 C 184.359375 141.742188 184.125 141.867188 183.878906 141.96875 C 183.632812 142.070312 183.382812 142.148438 183.121094 142.199219 C 182.859375 142.253906 182.597656 142.277344 182.328125 142.277344 C 182.0625 142.277344 181.800781 142.253906 181.539062 142.199219 C 181.277344 142.148438 181.023438 142.070312 180.78125 141.96875 C 180.535156 141.867188 180.300781 141.742188 180.078125 141.597656 C 179.859375 141.449219 179.652344 141.28125 179.464844 141.09375 C 179.277344 140.90625 179.109375 140.699219 178.960938 140.480469 C 178.8125 140.257812 178.6875 140.023438 178.585938 139.777344 C 178.484375 139.535156 178.40625 139.28125 178.355469 139.019531 C 178.304688 138.757812 178.277344 138.496094 178.277344 138.230469 C 178.277344 137.964844 178.304688 137.699219 178.355469 137.441406 C 178.40625 137.179688 178.484375 136.925781 178.585938 136.679688 C 178.6875 136.433594 178.8125 136.203125 178.960938 135.980469 C 179.109375 135.757812 179.277344 135.554688 179.464844 135.367188 C 179.652344 135.179688 179.859375 135.011719 180.078125 134.863281 C 180.300781 134.714844 180.535156 134.589844 180.78125 134.488281 C 181.023438 134.386719 181.277344 134.3125 181.539062 134.257812 C 181.800781 134.207031 182.0625 134.179688 182.328125 134.179688 C 182.597656 134.179688 182.859375 134.207031 183.121094 134.257812 C 183.382812 134.3125 183.632812 134.386719 183.878906 134.488281 C 184.125 134.589844 184.359375 134.714844 184.582031 134.863281 C 184.800781 135.011719 185.007812 135.179688 185.195312 135.367188 C 185.382812 135.554688 185.550781 135.757812 185.699219 135.980469 C 185.847656 136.203125 185.972656 136.433594 186.074219 136.679688 C 186.175781 136.925781 186.25 137.179688 186.304688 137.441406 C 186.355469 137.699219 186.382812 137.964844 186.382812 138.230469 Z M 186.382812 138.230469 " fill-opacity="1" fill-rule="nonzero"/><path fill="#ffffff" d="M 89.917969 56.152344 C 89.917969 56.492188 89.886719 56.828125 89.820312 57.160156 C 89.753906 57.488281 89.65625 57.8125 89.527344 58.125 C 89.398438 58.4375 89.238281 58.734375 89.050781 59.015625 C 88.863281 59.296875 88.648438 59.554688 88.410156 59.796875 C 88.171875 60.035156 87.910156 60.246094 87.628906 60.4375 C 87.347656 60.625 87.050781 60.78125 86.738281 60.910156 C 86.425781 61.042969 86.101562 61.140625 85.769531 61.203125 C 85.4375 61.269531 85.105469 61.304688 84.765625 61.304688 C 84.425781 61.304688 84.09375 61.269531 83.761719 61.203125 C 83.429688 61.140625 83.105469 61.042969 82.792969 60.910156 C 82.480469 60.78125 82.183594 60.625 81.902344 60.4375 C 81.621094 60.246094 81.359375 60.035156 81.121094 59.796875 C 80.882812 59.554688 80.667969 59.296875 80.480469 59.015625 C 80.292969 58.734375 80.132812 58.4375 80.003906 58.125 C 79.875 57.8125 79.777344 57.488281 79.710938 57.160156 C 79.644531 56.828125 79.613281 56.492188 79.613281 56.152344 C 79.613281 55.816406 79.644531 55.480469 79.710938 55.148438 C 79.777344 54.816406 79.875 54.496094 80.003906 54.183594 C 80.132812 53.871094 80.292969 53.574219 80.480469 53.292969 C 80.667969 53.011719 80.882812 52.75 81.121094 52.511719 C 81.359375 52.273438 81.621094 52.058594 81.902344 51.871094 C 82.183594 51.683594 82.480469 51.523438 82.792969 51.394531 C 83.105469 51.265625 83.429688 51.167969 83.761719 51.101562 C 84.09375 51.035156 84.425781 51.003906 84.765625 51.003906 C 85.105469 51.003906 85.4375 51.035156 85.769531 51.101562 C 86.101562 51.167969 86.425781 51.265625 86.738281 51.394531 C 87.050781 51.523438 87.347656 51.683594 87.628906 51.871094 C 87.910156 52.058594 88.171875 52.273438 88.410156 52.511719 C 88.648438 52.75 88.863281 53.011719 89.050781 53.292969 C 89.238281 53.574219 89.398438 53.871094 89.527344 54.183594 C 89.65625 54.496094 89.753906 54.816406 89.820312 55.148438 C 89.886719 55.480469 89.917969 55.816406 89.917969 56.152344 Z M 89.917969 56.152344 " fill-opacity="1" fill-rule="nonzero"/><path fill="#ffffff" d="M 106.125 38.617188 C 106.125 39.105469 106.03125 39.570312 105.847656 40.019531 C 105.660156 40.46875 105.394531 40.863281 105.050781 41.207031 C 104.707031 41.550781 104.3125 41.816406 103.863281 42 C 103.414062 42.1875 102.945312 42.28125 102.460938 42.28125 C 101.976562 42.28125 101.507812 42.1875 101.058594 42 C 100.609375 41.816406 100.214844 41.550781 99.871094 41.207031 C 99.527344 40.863281 99.261719 40.46875 99.074219 40.019531 C 98.890625 39.570312 98.796875 39.105469 98.796875 38.617188 C 98.796875 38.132812 98.890625 37.667969 99.074219 37.21875 C 99.261719 36.769531 99.527344 36.375 99.871094 36.03125 C 100.214844 35.6875 100.609375 35.421875 101.058594 35.234375 C 101.507812 35.050781 101.976562 34.957031 102.460938 34.957031 C 102.945312 34.957031 103.414062 35.050781 103.863281 35.234375 C 104.3125 35.421875 104.707031 35.6875 105.050781 36.03125 C 105.394531 36.375 105.660156 36.769531 105.847656 37.21875 C 106.03125 37.667969 106.125 38.132812 106.125 38.617188 Z M 106.125 38.617188 " fill-opacity="1" fill-rule="nonzero"/><path fill="#ffffff" d="M 163.085938 26.203125 C 163.085938 26.589844 163.011719 26.964844 162.863281 27.320312 C 162.714844 27.679688 162.503906 27.996094 162.230469 28.269531 C 161.957031 28.542969 161.640625 28.753906 161.28125 28.898438 C 160.925781 29.046875 160.554688 29.121094 160.164062 29.121094 C 159.777344 29.121094 159.40625 29.046875 159.046875 28.898438 C 158.691406 28.753906 158.375 28.542969 158.101562 28.269531 C 157.828125 27.996094 157.617188 27.679688 157.46875 27.320312 C 157.320312 26.964844 157.246094 26.589844 157.246094 26.203125 C 157.246094 25.816406 157.320312 25.445312 157.46875 25.089844 C 157.617188 24.730469 157.828125 24.414062 158.101562 24.140625 C 158.375 23.867188 158.691406 23.65625 159.046875 23.507812 C 159.40625 23.363281 159.777344 23.289062 160.164062 23.289062 C 160.554688 23.289062 160.925781 23.363281 161.28125 23.507812 C 161.640625 23.65625 161.957031 23.867188 162.230469 24.140625 C 162.503906 24.414062 162.714844 24.730469 162.863281 25.089844 C 163.011719 25.445312 163.085938 25.816406 163.085938 26.203125 Z M 163.085938 26.203125 " fill-opacity="1" fill-rule="nonzero"/><path fill="#ffffff" d="M 182.328125 28.109375 C 182.328125 28.425781 182.300781 28.742188 182.238281 29.050781 C 182.175781 29.363281 182.082031 29.664062 181.960938 29.957031 C 181.839844 30.25 181.691406 30.527344 181.515625 30.789062 C 181.339844 31.054688 181.140625 31.296875 180.917969 31.519531 C 180.691406 31.746094 180.449219 31.945312 180.183594 32.121094 C 179.921875 32.296875 179.644531 32.445312 179.351562 32.566406 C 179.058594 32.6875 178.757812 32.777344 178.445312 32.839844 C 178.132812 32.902344 177.820312 32.933594 177.503906 32.933594 C 177.1875 32.933594 176.875 32.902344 176.5625 32.839844 C 176.25 32.777344 175.949219 32.6875 175.65625 32.566406 C 175.363281 32.445312 175.085938 32.296875 174.824219 32.121094 C 174.558594 31.945312 174.316406 31.746094 174.089844 31.519531 C 173.867188 31.296875 173.667969 31.054688 173.492188 30.789062 C 173.316406 30.527344 173.167969 30.25 173.046875 29.957031 C 172.921875 29.664062 172.832031 29.363281 172.769531 29.050781 C 172.707031 28.742188 172.675781 28.425781 172.679688 28.109375 C 172.675781 27.792969 172.707031 27.480469 172.769531 27.167969 C 172.832031 26.859375 172.921875 26.558594 173.046875 26.265625 C 173.167969 25.972656 173.316406 25.695312 173.492188 25.429688 C 173.667969 25.167969 173.867188 24.921875 174.089844 24.699219 C 174.316406 24.476562 174.558594 24.277344 174.824219 24.101562 C 175.085938 23.925781 175.363281 23.777344 175.65625 23.65625 C 175.949219 23.535156 176.25 23.441406 176.5625 23.378906 C 176.875 23.316406 177.1875 23.289062 177.503906 23.289062 C 177.820312 23.289062 178.132812 23.316406 178.445312 23.378906 C 178.757812 23.441406 179.058594 23.535156 179.351562 23.65625 C 179.644531 23.777344 179.921875 23.925781 180.183594 24.101562 C 180.449219 24.277344 180.691406 24.476562 180.917969 24.699219 C 181.140625 24.921875 181.339844 25.167969 181.515625 25.429688 C 181.691406 25.695312 181.839844 25.972656 181.960938 26.265625 C 182.082031 26.558594 182.175781 26.859375 182.238281 27.167969 C 182.300781 27.480469 182.328125 27.792969 182.328125 28.109375 Z M 182.328125 28.109375 " fill-opacity="1" fill-rule="nonzero"/><g clip-path="url(#e63dc2b427)"><path fill="#ffffff" d="M 174.433594 14.117188 C 174.433594 14.558594 174.351562 14.984375 174.179688 15.394531 C 174.011719 15.800781 173.769531 16.164062 173.457031 16.476562 C 173.144531 16.789062 172.785156 17.03125 172.375 17.199219 C 171.96875 17.367188 171.542969 17.453125 171.097656 17.453125 C 170.65625 17.453125 170.230469 17.367188 169.820312 17.199219 C 169.414062 17.03125 169.050781 16.789062 168.738281 16.476562 C 168.425781 16.164062 168.1875 15.800781 168.015625 15.394531 C 167.847656 14.984375 167.761719 14.558594 167.761719 14.117188 C 167.761719 13.675781 167.847656 13.25 168.015625 12.84375 C 168.1875 12.433594 168.425781 12.074219 168.738281 11.761719 C 169.050781 11.449219 169.414062 11.207031 169.820312 11.039062 C 170.230469 10.867188 170.65625 10.785156 171.097656 10.785156 C 171.542969 10.785156 171.96875 10.867188 172.375 11.039062 C 172.785156 11.207031 173.144531 11.449219 173.457031 11.761719 C 173.769531 12.074219 174.011719 12.433594 174.179688 12.84375 C 174.351562 13.25 174.433594 13.675781 174.433594 14.117188 Z M 174.433594 14.117188 " fill-opacity="1" fill-rule="nonzero"/></g></svg>